<?xml version="1.0" standalone="no"?>
<!DOCTYPE svg PUBLIC "-//W3C//DTD SVG 20010904//EN"
 "http://www.w3.org/TR/2001/REC-SVG-20010904/DTD/svg10.dtd">
<svg version="1.0" xmlns="http://www.w3.org/2000/svg"
 width="500.000000pt" height="166.000000pt" viewBox="0 0 500.000000 166.000000"
 preserveAspectRatio="xMidYMid meet">

<g transform="translate(0.000000,166.000000) scale(0.100000,-0.100000)"
fill="#000000" stroke="none">
<path d="M2750 1581 c-69 -25 -132 -90 -149 -155 -15 -61 -15 -562 1 -623 16
-67 86 -136 157 -157 69 -20 103 -20 172 0 68 20 130 81 148 145 8 28 11 99 9
199 l-3 155 -115 0 -115 0 0 -70 0 -70 33 -3 32 -3 0 -74 c0 -89 -4 -102 -42
-121 -35 -18 -61 -11 -88 23 -19 24 -20 40 -20 284 0 170 4 266 11 283 16 34
58 51 91 35 34 -15 48 -48 48 -110 l0 -50 83 3 82 3 -1 76 c-2 146 -80 234
-214 244 -49 4 -79 1 -120 -14z"/>
<path d="M1930 1110 l0 -470 85 0 85 0 0 200 0 200 80 0 80 0 0 -200 0 -201
88 3 87 3 3 445 c1 245 0 455 -3 468 -5 22 -9 23 -88 20 l-82 -3 -5 -185 -5
-185 -75 0 -75 0 -3 188 -2 187 -85 0 -85 0 0 -470z"/>
<path d="M1250 610 c0 -7 423 -10 1250 -10 827 0 1250 3 1250 10 0 7 -423 10
-1250 10 -827 0 -1250 -3 -1250 -10z"/>
<path d="M1240 339 c0 -60 3 -80 13 -77 6 3 13 19 15 36 4 43 22 41 22 -3 0
-24 5 -35 15 -35 12 0 15 16 15 80 0 64 -3 80 -15 80 -10 0 -15 -10 -15 -30 0
-16 -4 -30 -10 -30 -5 0 -10 14 -10 30 0 20 -5 30 -15 30 -12 0 -15 -16 -15
-81z"/>
<path d="M1464 406 c-3 -7 -4 -42 -2 -77 l3 -64 38 -3 c28 -2 37 0 37 12 0 10
-9 16 -25 16 -18 0 -25 5 -25 20 0 13 7 20 20 20 11 0 20 7 20 15 0 8 -9 15
-20 15 -11 0 -20 7 -20 15 0 9 9 15 25 15 16 0 25 6 25 15 0 20 -68 21 -76 1z"/>
<path d="M1692 408 c-15 -15 -16 -148 -2 -148 6 0 10 22 10 49 0 54 7 81 21
81 5 0 9 -29 9 -65 0 -51 3 -65 15 -65 12 0 15 14 15 65 0 51 3 65 15 65 12 0
15 -14 15 -65 0 -51 3 -65 15 -65 12 0 15 14 15 63 0 34 -4 68 -9 76 -12 18
-103 25 -119 9z"/>
<path d="M1960 340 c0 -64 3 -80 15 -80 8 0 15 8 15 18 0 9 10 22 23 27 16 7
23 20 25 48 4 47 -11 67 -49 67 l-29 0 0 -80z m55 20 c0 -13 -6 -25 -12 -27
-9 -3 -13 6 -13 27 0 21 4 30 13 28 6 -3 12 -15 12 -28z"/>
<path d="M2192 408 c-7 -7 -12 -38 -12 -69 0 -64 15 -85 55 -75 24 6 25 10 25
75 0 54 -4 70 -16 75 -24 9 -39 7 -52 -6z m43 -68 c0 -26 -5 -45 -12 -47 -9
-3 -13 10 -13 47 0 37 4 50 13 48 7 -3 12 -22 12 -48z"/>
<path d="M2416 404 c-22 -22 -23 -144 -1 -144 12 0 15 14 15 65 0 51 3 65 15
65 12 0 15 -14 15 -65 0 -51 3 -65 15 -65 12 0 15 14 15 64 0 65 -14 96 -45
96 -7 0 -21 -7 -29 -16z"/>
<path d="M2821 406 c-19 -22 -10 -126 12 -140 26 -17 51 4 55 48 3 31 0 36
-17 36 -17 0 -20 -5 -14 -30 3 -19 1 -30 -6 -30 -7 0 -11 20 -11 50 0 28 5 50
10 50 6 0 10 -4 10 -10 0 -5 7 -10 15 -10 18 0 20 21 3 38 -16 16 -43 15 -57
-2z"/>
<path d="M3030 340 c0 -64 3 -80 15 -80 10 0 15 10 15 30 0 37 18 40 22 3 2
-14 8 -28 15 -30 15 -5 16 126 1 145 -6 6 -23 12 -39 12 l-29 0 0 -80z m54 41
c8 -12 -3 -41 -15 -41 -5 0 -9 11 -9 25 0 25 14 34 24 16z"/>
<path d="M3266 404 c-10 -10 -16 -33 -16 -64 0 -69 37 -102 74 -64 35 35 13
144 -29 144 -7 0 -21 -7 -29 -16z m44 -64 c0 -38 -4 -50 -15 -50 -11 0 -15 12
-15 50 0 38 4 50 15 50 11 0 15 -12 15 -50z"/>
<path d="M3482 349 c2 -55 7 -74 21 -83 12 -8 22 -8 35 0 24 15 31 154 7 154
-12 0 -15 -13 -15 -66 0 -48 -3 -65 -12 -62 -8 3 -14 28 -16 66 -2 34 -7 62
-13 62 -6 0 -9 -29 -7 -71z"/>
<path d="M3704 406 c-10 -26 1 -139 14 -144 7 -2 12 5 12 17 0 14 6 21 18 21
10 0 23 5 30 12 16 16 16 80 0 96 -16 16 -67 15 -74 -2z m56 -46 c0 -20 -5
-30 -15 -30 -10 0 -15 10 -15 30 0 20 5 30 15 30 10 0 15 -10 15 -30z"/>
<path d="M1250 90 c0 -7 423 -10 1250 -10 827 0 1250 3 1250 10 0 7 -423 10
-1250 10 -827 0 -1250 -3 -1250 -10z"/>
</g>
</svg>
